<?xml version="1.0" standalone="no"?>
<!DOCTYPE svg PUBLIC "-//W3C//DTD SVG 20010904//EN"
 "http://www.w3.org/TR/2001/REC-SVG-20010904/DTD/svg10.dtd">
<svg version="1.0" xmlns="http://www.w3.org/2000/svg"
 width="152.000000pt" height="152.000000pt" viewBox="0 0 152.000000 152.000000"
 preserveAspectRatio="xMidYMid meet">
<metadata>
Created by potrace 1.11, written by Peter Selinger 2001-2013
</metadata>
<g transform="translate(0.000000,152.000000) scale(0.100000,-0.100000)"
fill="#000000" stroke="none">
<path d="M737 1463 c-3 -2 -31 -6 -63 -8 -64 -4 -134 -28 -134 -47 0 -6 -3 -8
-7 -5 -3 4 -12 -1 -20 -11 -13 -15 -13 -15 -4 5 14 28 14 44 0 20 -6 -9 -14
-15 -19 -12 -5 3 -11 1 -15 -5 -7 -12 -25 -4 -25 11 0 6 5 7 12 3 7 -4 8 -3 4
5 -10 15 -29 3 -22 -14 2 -7 -2 -16 -10 -19 -10 -4 -13 -13 -10 -24 7 -22 -42
-71 -63 -64 -9 3 -11 0 -6 -7 4 -8 1 -11 -11 -9 -11 2 -23 -7 -31 -22 -7 -14
-17 -25 -22 -25 -5 0 -13 -4 -18 -9 -4 -5 -3 -6 3 -3 18 10 25 -20 9 -33 -8
-7 -20 -8 -27 -4 -10 6 -10 4 -2 -7 9 -12 11 -34 4 -41 -1 -2 -4 -12 -6 -23
-1 -11 -5 -31 -9 -45 -15 -61 -17 -133 -4 -141 12 -7 12 -9 0 -9 -10 0 -11 -3
-2 -14 9 -10 9 -16 1 -21 -8 -5 -7 -12 4 -24 9 -10 13 -21 10 -24 -4 -4 -3
-12 2 -19 8 -11 10 -33 4 -48 -1 -3 -3 -12 -5 -21 -1 -9 -6 -27 -10 -39 -4
-12 -3 -20 1 -17 5 3 9 -17 9 -43 0 -27 1 -47 4 -45 11 12 59 -121 53 -148 -1
-4 3 -7 8 -7 6 0 10 -4 10 -10 0 -11 36 -49 48 -51 4 -1 6 -6 4 -12 -2 -6 3
-6 12 2 16 14 32 -2 20 -21 -4 -7 -3 -8 4 -4 8 5 12 -2 12 -18 0 -14 4 -26 9
-26 5 0 14 -13 21 -30 7 -16 19 -30 27 -30 8 0 11 -4 8 -10 -3 -5 1 -10 10
-10 9 0 13 -5 10 -10 -3 -6 1 -10 10 -10 9 0 13 -4 10 -10 -3 -5 -1 -10 4 -10
25 0 63 -28 55 -41 -2 -4 5 -5 16 -2 11 3 20 0 20 -6 0 -6 7 -11 16 -11 9 0
12 -5 8 -12 -4 -6 -3 -8 3 -5 5 3 26 -2 45 -13 20 -10 39 -16 42 -13 3 4 6 2
6 -4 0 -6 7 -14 16 -17 8 -3 12 -2 9 4 -7 12 23 2 44 -14 11 -8 13 -8 7 1 -5
10 -1 11 17 4 16 -6 28 -6 36 2 8 8 11 8 11 -2 0 -13 25 -9 73 14 15 8 25 10
22 5 -3 -4 6 -3 19 3 14 7 23 14 20 16 -7 8 39 41 49 34 6 -3 7 -1 3 5 -3 6 0
14 7 19 8 4 19 18 26 31 7 12 16 20 22 17 5 -4 9 4 9 16 0 12 3 19 7 15 9 -9
62 78 70 115 3 16 11 29 17 29 6 0 4 5 -4 10 -8 5 -10 10 -4 10 6 0 11 6 12
13 0 6 3 30 7 52 9 55 12 179 5 243 -4 29 -2 52 3 52 5 0 7 9 4 20 -3 11 -1
20 3 20 5 0 7 9 5 20 -2 11 3 27 11 35 9 8 12 15 7 15 -5 0 -9 9 -10 20 -1 11
2 20 8 20 5 0 9 5 9 11 0 5 -4 7 -10 4 -6 -3 -7 1 -4 10 5 13 9 13 23 3 14
-11 14 -11 3 3 -6 9 -14 54 -16 100 -2 46 -7 98 -11 114 -4 17 -8 36 -8 43 0
6 -4 12 -9 12 -4 0 -8 7 -8 16 0 8 -13 35 -30 59 -16 24 -30 48 -30 54 0 6 -7
11 -15 11 -8 0 -15 5 -15 10 0 6 -7 10 -15 10 -8 0 -15 4 -15 9 0 11 -61 37
-78 33 -7 -2 -15 4 -18 12 -3 9 -10 13 -15 10 -6 -3 -16 0 -24 6 -12 10 -15
10 -15 -1 0 -9 -3 -10 -8 -4 -4 6 -29 11 -56 12 -27 2 -52 7 -55 11 -6 9 -116
14 -124 5z m-255 -85 c-7 -7 -12 -8 -12 -2 0 14 12 26 19 19 2 -3 -1 -11 -7
-17z m-25 -2 c0 -8 -6 -12 -15 -9 -11 5 -11 7 0 14 7 5 13 9 14 9 0 0 1 -6 1
-14z m-117 -106 c0 -5 -5 -10 -11 -10 -5 0 -7 5 -4 10 3 6 8 10 11 10 2 0 4
-4 4 -10z"/>
<path d="M539 1433 c-13 -17 -13 -17 6 -3 11 8 22 16 24 17 2 2 0 3 -6 3 -6 0
-17 -8 -24 -17z"/>
<path d="M411 1423 c1 -4 1 -15 0 -23 -1 -13 -2 -13 -12 0 -8 12 -9 10 -4 -7
5 -19 3 -22 -12 -17 -15 5 -16 4 -3 -5 13 -10 13 -12 0 -21 -8 -5 -10 -10 -5
-10 6 0 1 -8 -10 -16 -11 -9 -13 -14 -5 -10 8 3 23 9 32 12 9 3 19 13 22 21 3
8 1 11 -4 8 -14 -9 -12 1 5 35 10 19 11 31 5 35 -6 4 -10 3 -9 -2z"/>
</g>
</svg>
